                <svg xmlns="http://www.w3.org/2000/svg" xmlns:xlink="http://www.w3.org/1999/xlink" width="200" height="200" fill="#000000" version="1.1" x="0px" y="0px" viewBox="0 0 100 100" enable-background="new 0 0 100 100" xml:space="preserve"><path fill="#ffffff" d="M11.064,63.479l1.875,6.824c0.025,0.089,0.069,0.17,0.129,0.239l5.438,6.149  c0.044,0.049,0.094,0.09,0.15,0.123l8.438,4.875c0.041,0.023,0.086,0.042,0.131,0.056l10.783,3.153l11.812,1.087  c0.019,0.002,0.036,0.003,0.055,0.003s0.036-0.001,0.055-0.003l11.927-1.108l10.669-3.132c0.045-0.014,0.09-0.032,0.131-0.056  l8.438-4.875c0.057-0.033,0.106-0.074,0.15-0.123l5.438-6.149c0.06-0.069,0.104-0.15,0.129-0.239l1.883-6.861l0.975-4.706  c0.009-0.041,0.014-0.081,0.014-0.122l-0.008-7.723l-0.671-4.328l-2.194-7.744c-0.015-0.052-0.036-0.102-0.064-0.148l-6.262-10.312  c-0.034-0.055-0.078-0.104-0.127-0.146l-9.206-7.763c-0.046-0.038-0.097-0.07-0.151-0.094l-7.528-3.217l-3.919-1.444  c-0.042-0.016-0.086-0.026-0.132-0.032l-7.793-0.979l-4.682,0.1l-7.182,0.975c-0.052,0.007-0.101,0.021-0.148,0.04l-10.819,4.481  c-0.059,0.024-0.113,0.059-0.161,0.1l-9.432,8.119c-0.048,0.041-0.089,0.09-0.122,0.144L13.006,38.69  c-0.028,0.047-0.051,0.098-0.066,0.15l-1.883,6.844l-0.975,4.707c-0.009,0.04-0.014,0.08-0.014,0.121l0.011,7.762L11.064,63.479z   M51.622,15.885l6.051,0.766l-3,1.048l-5.392-1.771l2.246-0.049L51.622,15.885z M80.642,75.562l-2.49-5.191l6.692-4.89l-3.76,9.579  L80.642,75.562z M61.633,83.703l-0.199,0.018l-5.024-5.947l11.085-2.517l-5.567,8.359L61.633,83.703z M49.627,84.763l-5.586-7.374  l11.676,0.44l-5.568,6.932l-0.273,0.025L49.627,84.763z M38.231,83.725l-0.396-0.116l-5.593-8.805l11.106,2.504l-5.065,6.422  L38.231,83.725z M18.628,75.018L14.92,65.96l6.637,4.857l-2.436,4.759L18.628,75.018z M12.223,45.966l0.168-0.609l3.413-3.185  l-2.638,10.599l-1.132-5.891L12.223,45.966z M47.037,15.976l1.161-0.025l5.596,1.838l-10.81,0.99l3.467-2.723L47.037,15.976z   M87.832,46.817l0.139,0.886l-1.441,5.252l-1.336-9.174l2.471,2.444L87.832,46.817z M88.481,58.552l-0.223,1.074l-2.752,4.551  l1.084-9.756l1.891,3.468V58.552z M17.398,33.743l6.877-7.923l-1.625,5.96l-5.4,2.208L17.398,33.743z M34.455,19.231l-2.711,4.734  l-6.299,0.853l8.376-5.323L34.455,19.231z M53.355,39.189l10.639,4.981l-9.361,5.248L53.355,39.189z M54.274,49.449l-10.717-3.425  l9.439-6.812L54.274,49.449z M43.299,45.769l-1.492-10.334l10.938,3.516L43.299,45.769z M54.127,49.78l-8.926,7.681L43.388,46.35  L54.127,49.78z M64.221,44.456l0.497,11.205l-9.873-5.948L64.221,44.456z M53.524,38.87l9.13-5.336l1.507,10.318L53.524,38.87z   M42.025,35.128l9.385-5.496l1.5,8.994L42.025,35.128z M42.944,45.836l-10.045-2.958l8.557-7.353L42.944,45.836z M42.824,46.176  l-8.168,8.347l-1.9-11.312L42.824,46.176z M34.312,54.641l-8.77-2.758l6.877-8.503L34.312,54.641z M43.042,46.469l1.81,11.09  l-9.972-2.75L43.042,46.469z M54.339,50.072l0.885,10.013l-9.766-2.371L54.339,50.072z M54.698,50.044l9.83,5.922l-8.946,4.084  L54.698,50.044z M64.584,44.533l8.846,6.758l-8.351,4.405L64.584,44.533z M64.711,44.178l7.957-4.597l0.884,11.351L64.711,44.178z   M64.527,43.868l-1.5-10.273l9.443,5.684L64.527,43.868z M53.271,38.601l-1.499-8.986l10.593,3.672L53.271,38.601z M41.731,34.882  l-1.057-8.531l10.418,3.05L41.731,34.882z M32.671,42.6l-1.167-9.883l9.706,2.546L32.671,42.6z M25.357,51.542l-1.534-10.704  l8.394,2.222L25.357,51.542z M34.23,54.992l-6.713,8.268L25.47,52.237L34.23,54.992z M44.768,57.909l-6.633,8.512L34.801,55.16  L44.768,57.909z M55.135,60.435l-5.411,8.274l-4.349-10.644L55.135,60.435z M64.648,56.306l-2.771,11.28l-6.16-7.202L64.648,56.306z   M73.545,51.638l-1.324,11.621l-7.012-7.224L73.545,51.638z M73.918,51.005l-0.876-11.263l7.332,7.123L73.918,51.005z   M80.485,47.222l0.123,11.101l-6.565-6.969L80.485,47.222z M63.15,33.249l7.209-4.079l2.197,9.74L63.15,33.249z M51.975,29.304  l8.214-4.749l2.341,8.407L51.975,29.304z M51.664,29.066l-1.55-6.671l9.685,1.969L51.664,29.066z M51.298,29.085L41,26.07  l8.747-3.659L51.298,29.085z M41.377,34.935l-9.66-2.534l8.604-5.982L41.377,34.935z M32.32,42.715l-8.374-2.217l7.214-7.619  L32.32,42.715z M25.016,51.702l-6.523-2.406l5.006-8.182L25.016,51.702z M24.941,52.058l-5.999,7.481l-0.524-9.888L24.941,52.058z   M25.132,52.395l2.043,10.984l-8.098-3.433L25.132,52.395z M34.463,55.279l3.334,11.262l-10.074-2.962L34.463,55.279z   M45.025,58.162l4.369,10.691l-11.011-2.167L45.025,58.162z M55.443,60.619l6.162,7.202l-11.562,1.06L55.443,60.619z M65.01,56.346  l7.032,7.246l-9.814,4.074L65.01,56.346z M73.897,51.726l6.609,7.014l-7.931,4.582L73.897,51.726z M80.849,47.397l5.374,6.414  L80.97,58.39L80.849,47.397z M73.118,39.315l5.755-3.488l1.535,10.569L73.118,39.315z M72.945,38.998l-2.178-9.653l7.929,6.168  L72.945,38.998z M62.905,32.975l-2.329-8.37l9.508,4.308L62.905,32.975z M50.263,22.059l4.397-3.916l5.151,5.856L50.263,22.059z   M40.733,25.793l1.78-6.534l6.896,2.904L40.733,25.793z M31.498,32.114l0.523-7.761l8.004,1.831L31.498,32.114z M31.126,32.284  l-7.875-0.521l8.396-7.215L31.126,32.284z M23.128,31.394l1.67-6.124l6.479-0.878L23.128,31.394z M30.898,32.63l-7.149,7.552  l-0.75-8.074L30.898,32.63z M18.289,48.938l-1.937-7.163l6.902-0.951L18.289,48.938z M18.581,59.513L13.4,53.627l4.664-3.872  L18.581,59.513z M27.124,63.749l-5.258,6.626l-2.805-10.044L27.124,63.749z M37.753,66.903l-5.847,7.278l-4.186-10.228  L37.753,66.903z M49.373,69.216l-5.68,7.645l-5.291-9.804L49.373,69.216z M61.63,68.182l-5.563,9.16l-6.043-8.098L61.63,68.182z   M72.033,63.986l-4.197,10.649l-5.57-6.595L72.033,63.986z M80.518,59.149l-2.682,10.776l-5.204-6.221L80.518,59.149z   M86.244,54.271l-1.135,10.212l-4.073-5.674L86.244,54.271z M80.916,46.915l3.891-3.293l1.398,9.607L80.916,46.915z M80.794,46.548  L79.29,36.191l5.4,7.058L80.794,46.548z M70.858,28.961l5.189-1.696l2.604,7.759L70.858,28.961z M60.698,24.265l5.382-3.018  l3.982,7.261L60.698,24.265z M60.339,24.054l-5.134-5.836l10.474,2.841L60.339,24.054z M49.841,21.953l-6.714-2.826l11.021-1.01  L49.841,21.953z M40.335,25.887l-7.94-1.816l9.722-4.723L40.335,25.887z M23.41,40.439l-6.905,0.952l6.161-8.967L23.41,40.439z   M18.021,49.323l-4.57,3.795l2.681-10.777L18.021,49.323z M18.553,60.025l-3.911,4.958l-1.253-10.826L18.553,60.025z M18.709,60.409  l2.765,9.901l-6.703-4.907L18.709,60.409z M27.362,64.027l4.172,10.191l-9.452-3.538L27.362,64.027z M38.033,67.131l5.29,9.801  l-11.146-2.513L38.033,67.131z M49.688,69.396l6.024,8.073l-11.695-0.441L49.688,69.396z M61.992,68.275l5.573,6.597l-11.11,2.521  L61.992,68.275z M72.412,64.005l5.225,6.244l-9.41,4.379L72.412,64.005z M80.875,59.203l4.111,5.727l-6.768,4.945L80.875,59.203z   M79.371,35.705l4.119-0.081l0.219,0.361l0.952,6.633L79.371,35.705z M83.274,35.269l-4.133,0.081l-2.535-7.557l6.388,7.014  L83.274,35.269z M70.568,28.677L66.629,21.5l9.104,5.489L70.568,28.677z M68.904,20.765l-2.699,0.055l-4.248-2.961l1.07,0.395  L68.904,20.765z M59.201,16.844l1.42,0.522l4.576,3.189l-9.915-2.688l3.192-1.116L59.201,16.844z M32.302,23.715l2.697-4.708  l0.747-0.309l5.969,0.444L32.302,23.715z M31.899,20.291l-5.065,3.219l2.51-2.16L31.899,20.291z M18.491,31.936l1.566-2.593  l2.702-2.326L18.491,31.936z M16.938,34.505l5.372-2.197l-5.971,8.688l0.334-6.053L16.938,34.505z M14.223,64.504l-2.729-5.166  l-0.226-1.175v-0.728l1.762-3.241L14.223,64.504z M12.233,63.208l-0.509-2.661l2.598,4.919l-0.637,3.021L12.233,63.208z   M14.567,66.047l3.338,8.152l-3.845-4.348l-0.168-0.609L14.567,66.047z M21.792,71.15l4.763,8.842l-7.168-4.142L21.792,71.15z   M22.173,71.1l9.407,3.521l-4.007,5.959l-0.425-0.245L22.173,71.1z M31.852,74.86l5.46,8.594L27.926,80.7L31.852,74.86z   M43.666,77.488l5.478,7.23l-10.432-0.95L43.666,77.488z M56.085,77.946l4.912,5.815l-10.35,0.953L56.085,77.946z M67.899,75.298  l3.901,5.41l-9.335,2.749L67.899,75.298z M72.16,80.589l-3.992-5.535l9.356-4.355l-4.951,9.652L72.16,80.589z M77.92,70.718  l2.458,5.124l-7.229,4.177L77.92,70.718z M85.178,65.614l0.69,3.591l-0.179,0.646l-3.909,4.422L85.178,65.614z M85.428,65.002  l2.613-4.32l-0.514,2.479l-1.443,5.259L85.428,65.002z M88.481,57.136l-1.814-3.327l1.438-5.238l0.373,2.4l0.003,0.031V57.136z   M87.464,45.522l-2.356-2.332l-0.909-6.334l2.64,6.462L87.464,45.522z M85.302,38.609l0.374,0.614l0.277,0.979L85.302,38.609z   M79.507,29.064l2.511,4.135l-5.162-5.668l1.693,0.725L79.507,29.064z M76.271,26.888l-1.892-2.146l3.225,2.719L76.271,26.888z   M75.258,26.282l-8.482-5.114l2.933-0.06l0.735,0.314l2.074,1.749L75.258,26.282z M45.745,16.152l-3.409,2.676l-5.854-0.437  l0.62-0.256l6.545-1.698L45.745,16.152z M39.505,17.141l0.497-0.206l0.625-0.085L39.505,17.141z M14.768,38.095l-1.046,2.431  l0.354-1.285L14.768,38.095z M16.127,35.845l0.15-0.247l-0.328,5.944l-3.376,3.151l0.452-1.642L16.127,35.845z M11.559,49.176  l0.284-1.377l1.112,5.778l-1.687,3.104v-3.836L11.559,49.176z"/></svg>
